<svg xmlns="http://www.w3.org/2000/svg" viewBox="0 0 6177 2099"><defs><style>.cls-1{fill:#006a54;}.cls-2{fill:#085;}</style></defs><title>openaed</title><g id="Layer_3" data-name="Layer 3"><path class="cls-1" d="M928,1811c17.34-.21,27.82-1.46,27.82-1.46,11-1.32,19-2.78,27.82-4.4,24.32-4.46,36.49-6.65,39.54-7.32,31.23-6.85,66.18-14.11,102.49-32.21,19.79-9.87,13.72-9.44,115.67-95.17,10.86-9.14,27.11-22.75,32.21-45.39,3.65-16.17.18-30.58-2.92-39.54-57.45-91.07-89-144.21-93.71-158.13-.5-1.46-2.25-7.08-7.32-10.25-8.88-5.55-21.8.17-27.82,2.93-64,29.3-96,44-117.14,67.35-17,18.88-28.44,44.8-51.25,96.64-39.82,90.52-53.11,160.29-64.42,186a42.9,42.9,0,0,0-2.93,10.25c-1.41,8.89-1,23.77,7.32,29.29C915,1810.59,916.65,1811.11,928,1811Z"/><path class="cls-1" d="M1182.74,944.17c17.16-3.85,44.8-12.63,68.82-35.14,17.72-16.61,25.75-33.45,33.68-49.78,13.66-28.14,98-201.06,117.13-238.67a79.76,79.76,0,0,0,4.4-10.25c9.12-26.1,9.08-68.13-19-95.17-4.89-4.7-26.42-24.13-57.1-22-31.51,2.23-50.35,25.64-55.64,32.21-2.13,2.65-4.45,5.84-14.64,26.36-28.93,58.2-21.59,55.19-38.07,84.92-6.22,11.22-11.18,18.71-11.72,30.75-.6,13.73,5.12,20.51,8.79,32.21,5.62,17.92.9,35.62-8.79,70.28-6.46,23.14-6.1,15.36-22,63-21.42,64.3-16.32,61.23-23.43,71.75-2.34,3.47-7,9.9-5.85,17.57C1160.94,932.83,1172.88,939.87,1182.74,944.17Z"/><path class="cls-1" d="M1112.46,610.33c8-11.56,8.31-23.67,8.79-30.74.26-3.85,9.93-35.27,29.28-98.11,0,0,24.37-79.13,33.68-124.45.34-1.67,1-4.73,1.46-8.79,1-8.42,4.3-34.57-7.32-55.64-17.3-31.37-58.44-34.92-61.49-35.14-25.63-1.82-52.24,8.68-67.36,27.82a67.77,67.77,0,0,0-11.71,23.43c-35.59,116.66-53.35,201.94-60,228.41a67.1,67.1,0,0,0-1.47,7.33c-1,7.12-1.29,19.33,10.25,49.78,4.19,11.06,4,8.88,5.86,14.64,5.73,18,2.4,23.43,7.32,35.14,1.47,3.51,6.86,16.34,19,22,14.43,6.66,29.22,0,32.22-1.46,12.12-5.86,10.35-12.51,24.89-26.36C1093.15,621.69,1102.91,624.21,1112.46,610.33Z"/><path class="cls-1" d="M876.73,548.84c6.45-13.19,5.1-25.86,4.39-33.68-7.18-79.27-4.35-159.13-7.32-238.66a46.93,46.93,0,0,0-1.47-10.25c-6.69-25.93-37-51.17-71.74-51.25-29.68-.06-56.45,18.21-67.36,41-8.45,17.66-5.85,34.79-4.39,45.39,8,57.6,5.86,116.16,8.79,174.24,2.89,57.35,4.64,92,2.93,112.74a35.27,35.27,0,0,0,0,5.86c1.43,19.11,16.76,42.23,41,46.85,2.36.45,23.15,4.1,38.07-8.78,15.18-13.11,5.61-27.21,20.5-48.32C853.55,564.93,867.54,567.61,876.73,548.84Z"/><path class="cls-1" d="M632.2,592.76c-23.81-47-67.73-175.48-71.74-187.41a42.79,42.79,0,0,0-5.86-11.72c-13.83-19.44-45.35-28.76-71.74-20.5-33.68,10.54-45.06,45.35-46.86,51.25-6.68,21.9-2,40.48,11.72,80.53,46.44,135.67,86.2,195.74,98.1,224a48.41,48.41,0,0,0,5.85,10.25c2.86,3.85,10.74,14.44,24.89,17.57,3.65.81,17.54,4,24.9-2.92,8.44-8-.21-21.32-1.47-48.32-1.17-25.07,3.84-66,24.89-76.14,4.2-2,8.77-2.7,11.72-7.32C642.57,612.68,634.88,598,632.2,592.76Z"/><path class="cls-1" d="M500.43,1156.48c-11.9-24.18-62.62-189.25-73.21-297.23-1.16-11.78-2.24-27-11.72-43.93-19.05-34-59.45-52.16-95.17-54.17-17-1-51.95-2.94-71.75,22-11.92,15-15.84,36.6-10.25,54.18,5.21,16.33,17.13,24.51,27.82,33.67,11.38,9.75,26.62,32.37,57.11,77.6,44,65.26,125.63,207.09,136.17,225.49a33.38,33.38,0,0,0,7.32,8.79c2.93,2.49,12.84,10.9,23.43,7.32,10.31-3.49,13.06-15.56,13.17-16.11C505.13,1165.67,501.35,1158.36,500.43,1156.48Z"/><path class="cls-2" d="M1386.27,951.49c-9.5-19.56-30-26.56-33.68-27.82-47.74-16.32-136.38,30.28-168.38,96.64-6.72,13.94-15.69,38.6-39.54,49.78-4.75,2.23-20.07,9.14-36.6,2.93s-25.61-22.06-27.82-35.14a44.93,44.93,0,0,1,1.46-20.5c14.8-48.77,22.2-73.16,39.54-118.6,25-65.62,25.23-92.06,43.92-131.78a106.76,106.76,0,0,0,7.32-20.49c3.5-14.11,9.24-37.31-2.92-58.57-1.3-2.27-15.89-26.83-43.93-29.29-24.57-2.15-41.84,14.21-45.39,17.57-15,14.2-11.15,24.43-26.36,55.64-11.83,24.31-25.54,52.44-46.85,54.18-13.94,1.14-27.15-9.34-33.68-19-7-10.43-6.58-20.39-5.85-43.92,2-63.5,1.26-70.55,0-77.6-3.56-19.9-7.23-40.44-24.89-52.72-18.28-12.69-45.26-12.19-63,0-7.48,5.16-15.73,14.08-23.42,39.54-20.1,66.57,5.39,108.14-19,128.85-8.54,7.24-21,10.12-30.75,7.32-12.77-3.69-18.29-16.51-27.82-36.61-22.3-47.08-33.75-70.84-48.31-82-4.87-3.73-25.34-19.41-51.25-14.64-18.43,3.38-35.72,16.4-42.46,33.67-5.39,13.82-2.34,26,5.85,52.71,23.93,77.91,34.49,92.87,27.82,117.14-.38,1.42-9.58,33.42-30.74,38.07-24.86,5.46-58-28.63-73.21-58.57-9.2-18-7.89-26.71-19-35.14-16.41-12.42-41.92-10.78-60-1.46-25.57,13.15-32.58,39.49-33.68,43.92-6.67,27,5.54,50.48,13.18,67.36,3.45,7.62,14,53.88,35.14,146.42,23.68,103.72,14.86,101.21,32.21,149.34,20.26,56.19,38.07,98.11,38.07,98.11,17.46,41.07,23.73,51.17,23.43,70.28-.34,21.46-8.63,33.13-45.39,87.85-21,31.18-52,77.76-73.21,130.31-4.58,11.32-12,31-7.32,54.18,3.34,16.69,11.64,28.94,19,38.07,54.08,66.8,153.74,106.88,153.74,106.88s49.64,20,153.75,32.22a48.09,48.09,0,0,0,11.71,0c22.49-2.81,37.38-21.45,42.46-27.82,32.44-40.64,61-171,102.49-262.1,7.14-15.65,20.36-42.65,48.32-64.42,21.36-16.62,38.16-20,58.57-27.82,89.23-34.42,142.55-115.34,164-147.88,7.72-11.72,15.32-26.41,30.75-55.64,25.72-48.75,31.49-65.59,61.5-123,20.24-38.73,30.55-58.28,39.53-67.35,14.25-14.38,28.49-22.62,33.68-42.46C1390.88,981.64,1393.58,966.55,1386.27,951.49ZM719,1533l116.75-275.65H667.93l317-355.9-136.21,279.7H1021.4Z"/><path class="cls-2" d="M2093.13,1289.42q-65.76-36.66-104.42-102.43t-38.66-147.86q0-82.08,38.66-147.46t104.42-102Q2158.89,753,2237.81,753t144.67,36.67q65.76,36.68,103.62,102T2524,1039.13q0,82.11-38.26,147.86t-103.62,102.43q-65.37,36.67-144.27,36.67T2093.13,1289.42ZM2345,1157.1q40.24-44.62,40.26-118,0-74.13-40.26-118.37t-107.2-44.24q-67.77,0-108,43.84t-40.25,118.77q0,74.13,40.25,118.37t108,44.24Q2304.76,1201.74,2345,1157.1Z"/><path class="cls-2" d="M2791,888.48q35.06-19.12,82.1-19.13,55,0,99.63,27.9T3043.27,977q25.89,51.82,25.9,120.36t-25.9,120.76q-25.92,52.22-70.55,80.51t-99.63,28.29q-46.24,0-81.71-19.13T2736,1258.33v274.2H2599.68V875.73H2736v63Q2755.9,907.61,2791,888.48Zm111.19,128.73q-28.3-29.09-69.75-29.09-40.65,0-68.94,29.49t-28.3,80.51q0,51,28.3,80.5t68.94,29.5q40.67,0,69.35-29.9t28.7-80.9Q2930.48,1046.32,2902.18,1017.21Z"/><path class="cls-2" d="M3557.78,1130.8H3249.3q3.18,41.45,26.71,63.37t57.78,21.92q51,0,70.95-43h145.07a199.17,199.17,0,0,1-40.26,78.92q-29.1,35.08-72.93,55t-98,19.92q-65.37,0-116.38-27.9t-79.71-79.71q-28.69-51.8-28.69-121.15T3142.09,977q28.29-51.81,79.32-79.71t117.17-27.9q64.56,0,114.78,27.1t78.51,77.32q28.29,50.22,28.3,117.17A348.82,348.82,0,0,1,3557.78,1130.8Zm-137.1-75.73q0-35.05-23.91-55.79T3337,978.55q-34.28,0-57.79,19.93t-29.09,56.59Z"/><path class="cls-2" d="M4027.67,921.56q46.62,50.63,46.62,139.09v259.86h-135.5V1079q0-44.64-23.12-69.35t-62.17-24.71q-39.06,0-62.17,24.71T3768.21,1079v241.52h-136.3V875.73h136.3v59q20.72-29.48,55.8-46.63t78.91-17.14Q3981,870.94,4027.67,921.56Z"/><path class="cls-2" d="M4517.48,1221.67H4308.64l-33.48,98.84H4132.48L4334.94,761h157.83l202.46,559.56H4551Zm-35.08-105.22L4413.06,911.6l-68.55,204.85Z"/><path class="cls-2" d="M4892.91,870.15V983.33h182.53v105.22H4892.91V1211.3h206.45v109.21H4756.6V761h342.76v109.2Z"/><path class="cls-2" d="M5552.09,796q66.15,35.09,102.43,98.44t36.27,146.27q0,82.1-36.27,145.86t-102.83,98.84q-66.55,35.08-154.23,35.08H5187.82V761h209.64Q5485.93,761,5552.09,796Zm-43,364.27q43.05-42.24,43-119.56t-43-120.37q-43.05-43-120.36-43h-64.57v325.22h64.57Q5466,1202.54,5509.05,1160.29Z"/></g></svg>